<mxfile host="app.diagrams.net" modified="2025-09-03T15:20:00.000Z" agent="GitHub Copilot" etag="12345" version="21.7.5" type="device">
  <diagram name="Arquitectura Copper" id="diagram-1">
    <mxGraphModel dx="1434" dy="786" grid="1" gridSize="10" guides="1" tooltips="1" connect="1" arrows="1" fold="1" page="1" pageScale="1" pageWidth="1169" pageHeight="827" math="0" shadow="0">
      <root>
        <mxCell id="0" />
        <mxCell id="1" parent="0" />
        <mxCell id="2" value="Usuario" style="shape=umlActor;verticalLabelPosition=bottom;verticalAlign=top;html=1;outlineConnect=0;" vertex="1" parent="1">
          <mxGeometry x="80" y="380" width="30" height="60" as="geometry" />
        </mxCell>
        <mxCell id="3" value="&lt;b&gt;Core&lt;/b&gt;&lt;br&gt;(Bucle Principal)" style="rounded=1;whiteSpace=wrap;html=1;fillColor=#dae8fc;strokeColor=#6c8ebf;" vertex="1" parent="1">
          <mxGeometry x="200" y="385" width="120" height="50" as="geometry" />
        </mxCell>
        <mxCell id="4" value="&lt;b&gt;Window (GLFW)&lt;/b&gt;" style="rounded=1;whiteSpace=wrap;html=1;fillColor=#dae8fc;strokeColor=#6c8ebf;" vertex="1" parent="1">
          <mxGeometry x="380" y="280" width="140" height="50" as="geometry" />
        </mxCell>
        <mxCell id="5" value="&lt;b&gt;Renderer (WebGPU)&lt;/b&gt;" style="rounded=1;whiteSpace=wrap;html=1;fillColor=#dae8fc;strokeColor=#6c8ebf;" vertex="1" parent="1">
          <mxGeometry x="600" y="385" width="150" height="50" as="geometry" />
        </mxCell>
        <mxCell id="6" value="&lt;b&gt;Coder&lt;/b&gt;&lt;br&gt;(Generador Dinámico)" style="rounded=1;whiteSpace=wrap;html=1;fillColor=#dae8fc;strokeColor=#6c8ebf;" vertex="1" parent="1">
          <mxGeometry x="830" y="280" width="140" height="50" as="geometry" />
        </mxCell>
        <mxCell id="7" value="&lt;b&gt;ImGui&lt;/b&gt;&lt;br&gt;(Interfaz de Usuario)" style="rounded=1;whiteSpace=wrap;html=1;fillColor=#d5e8d4;strokeColor=#82b366;" vertex="1" parent="1">
          <mxGeometry x="380" y="490" width="140" height="50" as="geometry" />
        </mxCell>
        <mxCell id="8" value="&lt;b&gt;CameraController&lt;/b&gt;" style="rounded=1;whiteSpace=wrap;html=1;fillColor=#dae8fc;strokeColor=#6c8ebf;" vertex="1" parent="1">
          <mxGeometry x="600" y="180" width="150" height="50" as="geometry" />
        </mxCell>
        <mxCell id="9" value="&lt;b&gt;Camera (GLM)&lt;/b&gt;" style="rounded=1;whiteSpace=wrap;html=1;fillColor=#dae8fc;strokeColor=#6c8ebf;" vertex="1" parent="1">
          <mxGeometry x="830" y="180" width="140" height="50" as="geometry" />
        </mxCell>
        <mxCell id="10" value="&lt;b&gt;GizmoControls&lt;/b&gt;" style="rounded=1;whiteSpace=wrap;html=1;fillColor=#dae8fc;strokeColor=#6c8ebf;" vertex="1" parent="1">
          <mxGeometry x="600" y="490" width="150" height="50" as="geometry" />
        </mxCell>
        <mxCell id="11" value="Código Shader WGSL" style="shape=document;whiteSpace=wrap;html=1;boundedLbl=1;fillColor=#fff2cc;strokeColor=#d6b656;" vertex="1" parent="1">
          <mxGeometry x="840" y="385" width="120" height="80" as="geometry" />
        </mxCell>
        <mxCell id="12" value="GPU" style="shape=cylinder3;whiteSpace=wrap;html=1;boundedLbl=1;backgroundOutline=1;size=15;fillColor=#f8cecc;strokeColor=#b85450;" vertex="1" parent="1">
          <mxGeometry x="1050" y="370" width="80" height="100" as="geometry" />
        </mxCell>
        <mxCell id="13" value="" style="endArrow=classic;html=1;rounded=0;entryX=0;entryY=0.5;exitX=1;exitY=0.5;" edge="1" parent="1" source="3" target="5">
          <mxGeometry width="50" height="50" relative="1" as="geometry">
            <mxPoint x="330" y="410" as="sourcePoint" />
            <mxPoint x="590" y="410" as="targetPoint" />
            <Array as="points" />
          </mxGeometry>
        </mxCell>
        <mxCell id="14" value="Inicializa y controla" style="edgeLabel;html=1;align=center;verticalAlign=middle;resizable=0;points=[];" vertex="1" connectable="0" parent="13">
          <mxGeometry x="-0.24" y="1" relative="1" as="geometry">
            <mxPoint as="offset" />
          </mxGeometry>
        </mxCell>
        <mxCell id="15" value="" style="endArrow=classic;html=1;rounded=0;entryX=0;entryY=0.5;exitX=0.5;exitY=0;" edge="1" parent="1" source="3" target="4">
          <mxGeometry width="50" height="50" relative="1" as="geometry">
            <mxPoint x="270" y="375" as="sourcePoint" />
            <mxPoint x="370" y="305" as="targetPoint" />
            <Array as="points">
              <mxPoint x="260" y="305" />
            </Array>
          </mxGeometry>
        </mxCell>
        <mxCell id="16" value="" style="endArrow=classic;html=1;rounded=0;entryX=0;entryY=0.5;exitX=0.5;exitY=1;" edge="1" parent="1" source="3" target="7">
          <mxGeometry width="50" height="50" relative="1" as="geometry">
            <mxPoint x="270" y="445" as="sourcePoint" />
            <mxPoint x="370" y="515" as="targetPoint" />
            <Array as="points">
              <mxPoint x="260" y="515" />
            </Array>
          </mxGeometry>
        </mxCell>
        <mxCell id="17" value="" style="endArrow=classic;html=1;rounded=0;entryX=0;entryY=0.5;exitX=1;exitY=0.5;" edge="1" parent="1" source="2" target="3">
          <mxGeometry width="50" height="50" relative="1" as="geometry">
            <mxPoint x="120" y="410" as="sourcePoint" />
            <mxPoint x="190" y="410" as="targetPoint" />
          </mxGeometry>
        </mxCell>
        <mxCell id="18" value="Ejecuta" style="edgeLabel;html=1;align=center;verticalAlign=middle;resizable=0;points=[];" vertex="1" connectable="0" parent="17">
          <mxGeometry x="-0.2" relative="1" as="geometry">
            <mxPoint as="offset" />
          </mxGeometry>
        </mxCell>
        <mxCell id="19" value="Eventos de entrada&lt;br&gt;(mouse, teclado)" style="endArrow=classic;html=1;rounded=0;entryX=0.5;entryY=1;exitX=0.5;exitY=0;" edge="1" parent="1" source="4" target="8">
          <mxGeometry width="50" height="50" relative="1" as="geometry">
            <mxPoint x="460" y="270" as="sourcePoint" />
            <mxPoint x="665" y="240" as="targetPoint" />
            <Array as="points">
              <mxPoint x="450" y="205" />
            </Array>
          </mxGeometry>
        </mxCell>
        <mxCell id="20" value="" style="endArrow=classic;html=1;rounded=0;entryX=0;entryY=0.5;exitX=1;exitY=0.5;" edge="1" parent="1" source="8" target="9">
          <mxGeometry width="50" height="50" relative="1" as="geometry">
            <mxPoint x="760" y="205" as="sourcePoint" />
            <mxPoint x="820" y="205" as="targetPoint" />
          </mxGeometry>
        </mxCell>
        <mxCell id="21" value="Actualiza" style="edgeLabel;html=1;align=center;verticalAlign=middle;resizable=0;points=[];" vertex="1" connectable="0" parent="20">
          <mxGeometry x="-0.1429" relative="1" as="geometry">
            <mxPoint as="offset" />
          </mxGeometry>
        </mxCell>
        <mxCell id="22" value="Datos de cámara&lt;br&gt;(matriz de vista)" style="endArrow=classic;html=1;rounded=0;entryX=1;entryY=0;exitX=1;exitY=1;" edge="1" parent="1" source="9" target="5">
          <mxGeometry width="50" height="50" relative="1" as="geometry">
            <mxPoint x="910" y="240" as="sourcePoint" />
            <mxPoint x="700" y="375" as="targetPoint" />
            <Array as="points">
              <mxPoint x="910" y="360" />
              <mxPoint x="700" y="360" />
            </Array>
          </mxGeometry>
        </mxCell>
        <mxCell id="23" value="Genera" style="endArrow=classic;html=1;rounded=0;entryX=0.5;entryY=0;exitX=0.5;exitY=1;" edge="1" parent="1" source="6" target="11">
          <mxGeometry width="50" height="50" relative="1" as="geometry">
            <mxPoint x="900" y="340" as="sourcePoint" />
            <mxPoint x="900" y="375" as="targetPoint" />
          </mxGeometry>
        </mxCell>
        <mxCell id="24" value="Usa" style="endArrow=classic;html=1;rounded=0;entryX=0;entryY=0.5;exitX=1;exitY=0.5;" edge="1" parent="1" source="5" target="11">
          <mxGeometry width="50" height="50" relative="1" as="geometry">
            <mxPoint x="760" y="410" as="sourcePoint" />
            <mxPoint x="830" y="410" as="targetPoint" />
          </mxGeometry>
        </mxCell>
        <mxCell id="25" value="Comandos de renderizado" style="endArrow=classic;html=1;rounded=0;entryX=0;entryY=0.5;exitX=1;exitY=0.5;" edge="1" parent="1" source="5" target="12">
          <mxGeometry width="50" height="50" relative="1" as="geometry">
            <mxPoint x="760" y="420" as="sourcePoint" />
            <mxPoint x="1040" y="420" as="targetPoint" />
          </mxGeometry>
        </mxCell>
        <mxCell id="26" value="Framebuffer" style="endArrow=classic;html=1;rounded=0;entryX=1;entryY=0.5;exitX=0;exitY=0.5;" edge="1" parent="1" source="12" target="4">
          <mxGeometry width="50" height="50" relative="1" as="geometry">
            <mxPoint x="1040" y="305" as="sourcePoint" />
            <mxPoint x="530" y="305" as="targetPoint" />
            <Array as="points">
              <mxPoint x="1000" y="305" />
            </Array>
          </mxGeometry>
        </mxCell>
        <mxCell id="27" value="Define escena" style="endArrow=classic;html=1;rounded=0;entryX=0;entryY=0.5;exitX=1;exitY=0.5;" edge="1" parent="1" source="7" target="6">
          <mxGeometry width="50" height="50" relative="1" as="geometry">
            <mxPoint x="530" y="515" as="sourcePoint" />
            <mxPoint x="830" y="330" as="targetPoint" />
            <Array as="points">
              <mxPoint x="680" y="515" />
              <mxPoint x="680" y="305" />
            </Array>
          </mxGeometry>
        </mxCell>
        <mxCell id="28" value="Activa/Desactiva" style="endArrow=classic;html=1;rounded=0;entryX=0;entryY=0.5;exitX=1;exitY=0.5;" edge="1" parent="1" source="5" target="10">
          <mxGeometry width="50" height="50" relative="1" as="geometry">
            <mxPoint x="680" y="445" as="sourcePoint" />
            <mxPoint x="680" y="480" as="targetPoint" />
            <Array as="points">
              <mxPoint x="675" y="465" />
            </Array>
          </mxGeometry>
        </mxCell>
        <mxCell id="29" value="Eventos de picking" style="endArrow=classic;html=1;rounded=0;entryX=0.5;entryY=1;exitX=0.5;exitY=0;" edge="1" parent="1" source="7" target="5">
          <mxGeometry width="50" height="50" relative="1" as="geometry">
            <mxPoint x="450" y="480" as="sourcePoint" />
            <mxPoint x="675" y="445" as="targetPoint" />
            <Array as="points">
              <mxPoint x="450" y="460" />
              <mxPoint x="675" y="460" />
            </Array>
          </mxGeometry>
        </mxCell>
        <mxCell id="30" value="Modifica objeto seleccionado" style="endArrow=classic;html=1;rounded=0;entryX=1;entryY=1;exitX=1;exitY=0;" edge="1" parent="1" source="10" target="6">
          <mxGeometry width="50" height="50" relative="1" as="geometry">
            <mxPoint x="760" y="515" as="sourcePoint" />
            <mxPoint x="890" y="340" as="targetPoint" />
            <Array as="points">
              <mxPoint x="760" y="305" />
            </Array>
          </mxGeometry>
        </mxCell>
      </root>
    </mxGraphModel>
  </diagram>
</mxfile>